<svg width="40" height="40" viewBox="0 0 40 40" fill="none" xmlns="http://www.w3.org/2000/svg">
<path d="M20.002 0C8.95196 0 0.00196056 8.95 0.00196056 20C-0.00166072 24.1986 1.31747 28.2916 3.77207 31.698C6.22666 35.1043 9.69196 37.6509 13.676 38.976C14.676 39.15 15.052 38.55 15.052 38.024C15.052 37.55 15.026 35.976 15.026 34.3C10.002 35.226 8.70196 33.076 8.30196 31.95C8.07596 31.374 7.10196 29.6 6.25196 29.124C5.55196 28.75 4.55196 27.824 6.22596 27.8C7.80196 27.774 8.92596 29.25 9.30196 29.85C11.102 32.874 13.976 32.024 15.126 31.5C15.302 30.2 15.826 29.326 16.402 28.826C11.952 28.326 7.30196 26.6 7.30196 18.95C7.30196 16.774 8.07596 14.976 9.35196 13.576C9.15196 13.076 8.45196 11.026 9.55196 8.276C9.55196 8.276 11.226 7.75 15.052 10.324C16.6803 9.87329 18.3624 9.64653 20.052 9.65C21.752 9.65 23.452 9.874 25.052 10.324C28.878 7.724 30.552 8.276 30.552 8.276C31.652 11.026 30.952 13.076 30.752 13.576C32.026 14.976 32.802 16.75 32.802 18.95C32.802 26.626 28.128 28.326 23.678 28.826C24.402 29.45 25.028 30.65 25.028 32.526C25.028 35.2 25.002 37.35 25.002 38.026C25.002 38.55 25.378 39.174 26.378 38.974C30.347 37.6322 33.7957 35.0802 36.2391 31.6768C38.6825 28.2733 39.9978 24.1897 40 20C40 8.95 31.05 0 20 0" fill="black"/>
</svg>
